<svg preserveAspectRatio="none" overflow="visible" style="display: block;" width="15.9995" height="15.9968" viewBox="0 0 15.9995 15.9968" fill="none" xmlns="http://www.w3.org/2000/svg">
<path id="Vector" d="M4.49992 1.34066C4.40617 1.09066 4.12492 0.934412 3.87492 1.02816L3.65617 1.05941C1.99992 1.52816 0.687422 3.09066 1.06242 4.90316C2.12492 9.93441 6.06242 13.8719 11.0937 14.9344C12.9062 15.3094 14.4687 13.9969 14.9374 12.3407L14.9687 12.1219C15.0624 11.8719 14.9062 11.5907 14.6562 11.4969L11.7499 10.2782C11.5312 10.1844 11.2812 10.2469 11.1249 10.4344L9.96867 11.8094C9.84367 11.9969 9.59367 12.0594 9.37492 11.9657C7.03117 10.8407 5.15617 8.90316 4.12492 6.52816C4.03117 6.30941 4.09367 6.09066 4.28117 5.93441L5.56242 4.87191C5.74992 4.71566 5.81242 4.46566 5.71867 4.24691L4.49992 1.34066ZM3.59367 0.0594116C4.34367 -0.159338 5.12492 0.246912 5.43742 0.934412L6.65617 3.87191C6.90617 4.49691 6.71867 5.21566 6.21867 5.65316L5.18742 6.46566C6.09367 8.37191 7.62492 9.90316 9.46867 10.9032L10.3437 9.80941C10.7812 9.27816 11.4999 9.09066 12.1249 9.34066L15.0624 10.5594C15.7812 10.8719 16.1562 11.6532 15.9374 12.4032L15.9062 12.5907C15.3437 14.6219 13.3437 16.4344 10.8749 15.9032C5.46867 14.7782 1.21867 10.5282 0.0936722 5.12191C-0.437578 2.65316 1.37492 0.653162 3.40617 0.121912L3.59367 0.0594116Z" fill="#515151"/>
</svg>
